<svg fill="#FFFFFF" xmlns="http://www.w3.org/2000/svg" xmlns:xlink="http://www.w3.org/1999/xlink" version="1.1" x="0px" y="0px" viewBox="0 0 84.999 71.751" enable-background="new 0 0 84.999 71.751" xml:space="preserve"><path d="M14.351,71.453l21.387-9.666c0.38-0.174,0.713-0.406,0.99-0.686c0.96-0.959,1.278-2.447,0.688-3.758  c-0.764-1.689-2.753-2.439-4.442-1.676l-13.689,6.188c4.6-18.236,12.068-30.318,20.174-38.43  c9.203-9.199,19.332-13.364,27.381-15.248c8.04-1.879,13.964-1.429,14.442-1.383c0.022,0,0.022,0,0.022,0l0.002,0.001  c1.042,0.104,2.023-0.281,2.712-0.968c0.526-0.527,0.884-1.233,0.964-2.034c0.187-1.844-1.157-3.49-3.001-3.678  c-0.248-0.022-6.7-0.66-15.807,1.329C57.081,3.432,45.289,8.097,34.71,18.678c-9.006,8.999-17.047,22.231-21.896,41.376  L6.405,46.181h0c-0.778-1.684-2.771-2.416-4.455-1.641c-1.684,0.777-2.417,2.771-1.64,4.455l9.611,20.807  C10.693,71.474,12.67,72.21,14.351,71.453z"></path></svg>